<svg xmlns="http://www.w3.org/2000/svg" width="1300" height="360" viewBox="0 0 1300 360" font-family="Segoe UI,system-ui,sans-serif">
  <defs>
    <linearGradient id="bg" x1="0" y1="0" x2="1" y2="1"><stop offset="0" stop-color="#fbeef3"/><stop offset="1" stop-color="#ffe7d6"/></linearGradient>
    <linearGradient id="flow" x1="0" y1="0" x2="1" y2="0"><stop offset="0" stop-color="#ff2d75"/><stop offset="1" stop-color="#ff8a3d"/></linearGradient>
    <linearGradient id="edge" x1="0" y1="0" x2="0" y2="1"><stop offset="0" stop-color="#ff2d75" stop-opacity="0.55"/><stop offset="1" stop-color="#ff8a3d" stop-opacity="0.35"/></linearGradient>
  </defs>
  <rect width="1300" height="360" rx="24" fill="url(#bg)"/>
  <rect x="0.5" y="0.5" width="1299" height="359" rx="24" fill="none" stroke="#e7cdd9"/>
  <text x="40" y="58" fill="#1a1020" font-size="30" font-weight="800">🎬 AI Shorts Studio</text>
  <text x="40" y="84" fill="#6a5260" font-size="14">Local text-to-video pipeline · queue-driven · single GPU</text>
  <text x="1260" y="58" text-anchor="end" fill="url(#flow)" font-size="22" font-weight="800">v5.0</text>
  <g>
  <g>
    <rect x="40" y="120" width="150" height="104" rx="18" fill="#ffffff" stroke="url(#edge)" stroke-width="1.5"/>
    <text x="115" y="154" text-anchor="middle" font-size="26">📝</text>
    <text x="115" y="182" text-anchor="middle" fill="#1a1020" font-size="15" font-weight="700" font-family="Segoe UI,system-ui,sans-serif">Prompt</text>
    <text x="115" y="202" text-anchor="middle" fill="#6a5260" font-size="10.5" font-family="Segoe UI,system-ui,sans-serif">idea · language · duration</text>
  </g>
  <line x1="194" y1="172" x2="206.33333333333334" y2="172" stroke="url(#flow)" stroke-width="2.5"/>
  <path d="M 206.33333333333334 167 L 214.33333333333334 172 L 206.33333333333334 177 Z" fill="#ff8a3d"/>
  <g>
    <rect x="218.33333333333334" y="120" width="150" height="104" rx="18" fill="#ffffff" stroke="url(#edge)" stroke-width="1.5"/>
    <text x="293.33333333333337" y="154" text-anchor="middle" font-size="26">🗂</text>
    <text x="293.33333333333337" y="182" text-anchor="middle" fill="#1a1020" font-size="15" font-weight="700" font-family="Segoe UI,system-ui,sans-serif">Queue</text>
    <text x="293.33333333333337" y="202" text-anchor="middle" fill="#6a5260" font-size="10.5" font-family="Segoe UI,system-ui,sans-serif">priority · ETA · retry</text>
  </g>
  <line x1="372.33333333333337" y1="172" x2="384.6666666666667" y2="172" stroke="url(#flow)" stroke-width="2.5"/>
  <path d="M 384.6666666666667 167 L 392.6666666666667 172 L 384.6666666666667 177 Z" fill="#ff8a3d"/>
  <g>
    <rect x="396.6666666666667" y="120" width="150" height="104" rx="18" fill="#ffffff" stroke="url(#edge)" stroke-width="1.5"/>
    <text x="471.6666666666667" y="154" text-anchor="middle" font-size="26">🎬</text>
    <text x="471.6666666666667" y="182" text-anchor="middle" fill="#1a1020" font-size="15" font-weight="700" font-family="Segoe UI,system-ui,sans-serif">Generator</text>
    <text x="471.6666666666667" y="202" text-anchor="middle" fill="#6a5260" font-size="10.5" font-family="Segoe UI,system-ui,sans-serif">FLUX2→Wan2.2 / LTX 2.3</text>
  </g>
  <line x1="550.6666666666667" y1="172" x2="563" y2="172" stroke="url(#flow)" stroke-width="2.5"/>
  <path d="M 563 167 L 571 172 L 563 177 Z" fill="#ff8a3d"/>
  <g>
    <rect x="575" y="120" width="150" height="104" rx="18" fill="#ffffff" stroke="url(#edge)" stroke-width="1.5"/>
    <text x="650" y="154" text-anchor="middle" font-size="26">🔊</text>
    <text x="650" y="182" text-anchor="middle" fill="#1a1020" font-size="15" font-weight="700" font-family="Segoe UI,system-ui,sans-serif">Audio</text>
    <text x="650" y="202" text-anchor="middle" fill="#6a5260" font-size="10.5" font-family="Segoe UI,system-ui,sans-serif">TTS / native + acoustic-match</text>
  </g>
  <line x1="729" y1="172" x2="741.3333333333334" y2="172" stroke="url(#flow)" stroke-width="2.5"/>
  <path d="M 741.3333333333334 167 L 749.3333333333334 172 L 741.3333333333334 177 Z" fill="#ff8a3d"/>
  <g>
    <rect x="753.3333333333334" y="120" width="150" height="104" rx="18" fill="#ffffff" stroke="url(#edge)" stroke-width="1.5"/>
    <text x="828.3333333333334" y="154" text-anchor="middle" font-size="26">✨</text>
    <text x="828.3333333333334" y="182" text-anchor="middle" fill="#1a1020" font-size="15" font-weight="700" font-family="Segoe UI,system-ui,sans-serif">Real-ESRGAN</text>
    <text x="828.3333333333334" y="202" text-anchor="middle" fill="#6a5260" font-size="10.5" font-family="Segoe UI,system-ui,sans-serif">2× / 4× upscale</text>
  </g>
  <line x1="907.3333333333334" y1="172" x2="919.6666666666667" y2="172" stroke="url(#flow)" stroke-width="2.5"/>
  <path d="M 919.6666666666667 167 L 927.6666666666667 172 L 919.6666666666667 177 Z" fill="#ff8a3d"/>
  <g>
    <rect x="931.6666666666667" y="120" width="150" height="104" rx="18" fill="#ffffff" stroke="url(#edge)" stroke-width="1.5"/>
    <text x="1006.6666666666667" y="154" text-anchor="middle" font-size="26">🎞</text>
    <text x="1006.6666666666667" y="182" text-anchor="middle" fill="#1a1020" font-size="15" font-weight="700" font-family="Segoe UI,system-ui,sans-serif">Exporter</text>
    <text x="1006.6666666666667" y="202" text-anchor="middle" fill="#6a5260" font-size="10.5" font-family="Segoe UI,system-ui,sans-serif">captions · concat · fit</text>
  </g>
  <line x1="1085.6666666666667" y1="172" x2="1098" y2="172" stroke="url(#flow)" stroke-width="2.5"/>
  <path d="M 1098 167 L 1106 172 L 1098 177 Z" fill="#ff8a3d"/>
  <g>
    <rect x="1110" y="120" width="150" height="104" rx="18" fill="#ffffff" stroke="url(#edge)" stroke-width="1.5"/>
    <text x="1185" y="154" text-anchor="middle" font-size="26">✅</text>
    <text x="1185" y="182" text-anchor="middle" fill="#1a1020" font-size="15" font-weight="700" font-family="Segoe UI,system-ui,sans-serif">Final MP4</text>
    <text x="1185" y="202" text-anchor="middle" fill="#6a5260" font-size="10.5" font-family="Segoe UI,system-ui,sans-serif">1080×1920 → 4K</text>
  </g>
  </g>
  <text x="650" y="282" text-anchor="middle" fill="#6a5260" font-size="13">Ollama · ComfyUI (FLUX2 / Wan 2.2 / LTX 2.3) · SAPI / native audio · Real-ESRGAN · ffmpeg — 100% local, no API keys</text>
</svg>